<svg xmlns="http://www.w3.org/2000/svg" width="32" height="32" viewBox="0 0 512 512" version="1.1"><path d="M 365.782 106.405 L 361.063 107.675 355.536 111.345 L 350.009 115.015 346.524 119.757 C 344.607 122.366, 342.309 126.374, 341.417 128.664 L 339.794 132.828 333.647 135.491 C 330.266 136.956, 323.890 140.555, 319.477 143.490 L 311.454 148.825 302.946 157.663 L 294.438 166.500 289.781 174 C 284.781 182.052, 280.022 193.102, 277.463 202.602 L 275.874 208.500 274.927 226.856 L 273.981 245.212 273.240 246.519 L 272.500 247.827 267.975 243.663 C 265.487 241.373, 258.512 234.146, 252.475 227.601 L 241.500 215.703 233.500 209.040 C 221.280 198.864, 215.037 194.524, 204.840 189.119 L 195.500 184.168 186.412 181.157 C 181.414 179.502, 174.439 177.578, 170.912 176.883 L 164.500 175.620 150 175.620 L 135.500 175.620 129 176.857 C 125.425 177.537, 118.900 179.256, 114.500 180.676 L 106.500 183.259 94.615 189.278 L 82.729 195.297 74.860 201.226 L 66.991 207.156 56.222 217.828 C 50.300 223.698, 35.227 239.170, 22.727 252.212 L 0 275.924 0 280.048 L -0 284.173 25.904 310.836 C 61.342 347.312, 67.266 352.590, 84.363 362.917 L 93.183 368.245 102.342 371.980 L 111.500 375.716 123 378.493 L 134.500 381.271 149 381.250 L 163.500 381.229 171.500 379.543 C 175.900 378.616, 183.550 376.514, 188.500 374.873 L 197.500 371.888 208 366.366 L 218.500 360.844 228 353.698 L 237.500 346.552 250.376 334.026 L 263.251 321.500 272.937 309.436 L 282.624 297.371 287.913 287.075 L 293.202 276.778 296.143 268.139 L 299.085 259.500 300.537 250 L 301.988 240.500 301.994 229.410 L 302 218.320 304.021 210.410 L 306.043 202.500 310.251 194 L 314.459 185.500 323.980 175.990 L 333.500 166.480 342 162.226 L 350.500 157.972 358.410 155.986 L 366.320 154 376 154 L 385.680 154 393.377 155.968 L 401.073 157.937 408.787 161.955 L 416.500 165.974 422 170.479 C 425.025 172.956, 429.660 177.575, 432.300 180.742 L 437.099 186.500 441.062 194.500 L 445.024 202.500 446.990 211.500 L 448.957 220.500 448.978 236.178 L 449 251.855 450.083 259.645 L 451.167 267.434 454.607 278.785 L 458.048 290.135 462.656 299.318 C 465.190 304.368, 469.269 311.313, 471.720 314.750 L 476.176 321 374.970 321 L 273.765 321 269.882 324.882 L 266 328.765 266 333.234 L 266 337.704 268.270 341.102 L 270.540 344.500 274.020 346.248 L 277.500 347.997 290.092 347.998 L 302.683 348 303.934 352.250 C 304.621 354.588, 307.505 360.997, 310.342 366.493 L 315.500 376.487 324.025 384.993 L 332.550 393.500 340.525 397.682 L 348.500 401.863 356 403.969 L 363.500 406.076 375.191 406.081 L 386.881 406.086 393.021 404.495 C 400.888 402.456, 407.962 399.301, 415.488 394.474 L 421.476 390.634 428.573 383.327 L 435.670 376.020 440.355 367.760 C 442.932 363.217, 445.981 356.940, 447.132 353.812 L 449.223 348.123 474.521 347.812 L 499.819 347.500 503.659 344.407 C 505.772 342.706, 508.512 339.827, 509.750 338.009 L 512 334.704 512 329.320 L 512 323.936 510.629 320.718 C 509.875 318.948, 505.124 312.325, 500.070 306 L 490.883 294.500 486.429 285.429 L 481.975 276.357 479.375 266.429 L 476.774 256.500 475.975 233 L 475.177 209.500 473.181 202 C 470.151 190.615, 467.420 184.018, 462.007 175.012 L 457.078 166.811 451.294 160.223 L 445.510 153.635 438.093 147.741 L 430.676 141.846 420.921 137.173 L 411.167 132.500 409.043 127.382 L 406.919 122.265 403.370 118.119 C 401.418 115.839, 397.873 112.633, 395.493 110.995 L 391.165 108.018 385.373 106.509 L 379.580 105 375.040 105.067 C 372.543 105.105, 368.377 105.706, 365.782 106.405 M 370.383 174.938 L 366.265 176.784 364.633 179.114 L 363 181.445 363 213.438 L 363 245.431 378.785 261.215 L 394.569 277 399.137 277 L 403.704 277 407.088 274.720 L 410.471 272.440 411.778 269.970 L 413.085 267.500 412.680 262.652 L 412.275 257.804 400.137 245.638 L 388 233.471 388 208.140 L 388 182.809 386.364 180.040 L 384.729 177.271 382.114 175.771 C 380.677 174.947, 378.375 174.006, 377 173.682 L 374.500 173.092 370.383 174.938 M 129.422 205.468 L 120.344 207.779 111.922 211.829 C 107.290 214.057, 99.900 218.250, 95.500 221.148 L 87.500 226.417 60.797 252.876 L 34.093 279.334 37.972 283.966 C 40.105 286.514, 49.872 296.683, 59.675 306.564 L 77.500 324.530 86.500 331.287 L 95.500 338.043 105.500 342.975 C 117.850 349.067, 125.217 351.530, 136.080 353.203 L 144.500 354.500 156.500 353.841 L 168.500 353.182 175.500 350.999 C 184.733 348.120, 196.220 342.345, 205.726 335.803 L 213.432 330.500 230.343 314 L 247.255 297.500 255.230 287.589 L 263.205 277.679 237.852 252.582 L 212.500 227.485 203.277 221.206 C 198.204 217.752, 190.765 213.365, 186.746 211.456 L 179.437 207.986 169.469 205.505 L 159.500 203.024 149 203.091 L 138.500 203.158 129.422 205.468 M 85.882 260.882 L 82 264.765 82 270.346 L 82 275.927 88.214 282.570 C 95.933 290.821, 103.681 296.835, 113.176 301.944 L 120.500 305.885 128.500 308.174 L 136.500 310.463 148 310.428 L 159.500 310.394 167.500 308.080 C 177.386 305.221, 183.342 302.271, 193 295.447 L 200.500 290.148 206.913 283.633 L 213.326 277.118 213.705 271.809 L 214.085 266.500 212.778 264.030 L 211.471 261.560 208.088 259.280 L 204.704 257 201.786 257 C 197.814 257, 195.567 258.340, 188.110 265.153 C 184.596 268.364, 179.203 272.662, 176.125 274.705 L 170.530 278.419 164.015 280.839 L 157.500 283.258 148.500 283.328 L 139.500 283.398 134 281.563 C 130.975 280.554, 125.553 278.023, 121.951 275.938 L 115.401 272.146 108.451 265.729 C 104.628 262.200, 100.517 258.792, 99.316 258.156 L 97.131 257 93.448 257 L 89.765 257 85.882 260.882 M 333.598 351.250 C 338.413 360.740, 343.449 366.145, 352.981 372.054 L 358.713 375.607 366.848 377.465 L 374.983 379.323 381.892 378.089 L 388.802 376.854 394.996 373.924 L 401.190 370.995 407.354 364.747 L 413.518 358.500 416.322 353.250 L 419.125 348 375.537 348 L 331.949 348 333.598 351.250" stroke="none" fill="#3E63DD" fill-rule="evenodd"/></svg>
